<svg xmlns="http://www.w3.org/2000/svg" xmlns:xlink="http://www.w3.org/1999/xlink" width="1080" zoomAndPan="magnify" viewBox="0 0 810 809.999993" height="1080" preserveAspectRatio="xMidYMid meet" version="1.0"><defs><clipPath id="69e6ba6afb"><path d="M 149.742188 259 L 635 259 L 635 598 L 149.742188 598 Z M 149.742188 259 " clip-rule="nonzero"/></clipPath><clipPath id="9e89512996"><path d="M 297 639 L 487 639 L 487 660.492188 L 297 660.492188 Z M 297 639 " clip-rule="nonzero"/></clipPath></defs><g clip-path="url(#69e6ba6afb)"><path fill="#ffffff" d="M 593.128906 597.007812 L 191.152344 597.007812 C 168.292969 597.007812 149.742188 578.820312 149.742188 556.40625 L 149.742188 300.402344 C 149.742188 277.988281 168.292969 259.800781 191.152344 259.800781 L 423.714844 259.800781 L 423.714844 280.863281 L 191.152344 280.863281 C 179.925781 280.863281 170.808594 289.621094 170.808594 300.402344 L 170.808594 556.40625 C 170.808594 567.1875 179.925781 575.945312 191.152344 575.945312 L 593.128906 575.945312 C 604.3125 575.945312 613.429688 567.1875 613.429688 556.40625 L 613.429688 322.992188 L 634.492188 322.992188 L 634.492188 556.40625 C 634.492188 578.820312 615.945312 597.007812 593.128906 597.007812 " fill-opacity="1" fill-rule="nonzero"/></g><path fill="#ffffff" d="M 381.585938 592.789062 L 402.652344 592.789062 L 402.652344 644.796875 L 381.585938 644.796875 L 381.585938 592.789062 " fill-opacity="1" fill-rule="nonzero"/><g clip-path="url(#9e89512996)"><path fill="#ffffff" d="M 297.285156 639.183594 L 486.953125 639.183594 L 486.953125 660.246094 L 297.285156 660.246094 L 297.285156 639.183594 " fill-opacity="1" fill-rule="nonzero"/></g><path fill="#ffffff" d="M 293.914062 491.640625 L 322.523438 491.640625 C 361.734375 491.640625 389.761719 482.660156 405.839844 465.054688 C 418.28125 451.398438 420.121094 436.085938 420.300781 429.390625 L 380.058594 389.105469 C 324.636719 390.855469 314.753906 426.070312 305.1875 460.203125 C 302.179688 470.9375 298.992188 482.253906 293.914062 491.640625 Z M 322.523438 512.707031 L 234.046875 512.707031 L 234.046875 491.640625 L 260.722656 491.640625 C 273.210938 491.640625 277.476562 480.90625 284.886719 454.5 C 295.128906 417.984375 309.1875 367.996094 384.371094 367.996094 L 391.828125 371.050781 L 438.175781 417.445312 L 441.230469 423.734375 C 441.320312 424.992188 444.152344 453.960938 421.785156 478.84375 C 401.574219 501.296875 368.15625 512.707031 322.523438 512.707031 " fill-opacity="1" fill-rule="nonzero"/><path fill="#ffffff" d="M 434.40625 436.984375 L 419.359375 422.160156 L 628.609375 210.214844 C 636.558594 202.21875 636.558594 189.285156 628.65625 181.335938 C 620.707031 173.386719 607.769531 173.386719 599.820312 181.335938 L 387.828125 390.585938 L 373.007812 375.585938 L 584.953125 166.425781 C 601.078125 150.300781 627.351562 150.300781 643.523438 166.46875 C 659.644531 182.59375 659.691406 208.914062 643.523438 225.082031 L 434.40625 436.984375 " fill-opacity="1" fill-rule="nonzero"/></svg>