<svg xmlns="http://www.w3.org/2000/svg" xmlns:xlink="http://www.w3.org/1999/xlink" width="1080" zoomAndPan="magnify" viewBox="0 0 810 809.999993" height="1080" preserveAspectRatio="xMidYMid meet" version="1.0"><defs><clipPath id="e48829711c"><path d="M 178 447 L 738.542969 447 L 738.542969 673 L 178 673 Z M 178 447 " clip-rule="nonzero"/></clipPath><clipPath id="929aebb665"><path d="M 71.792969 381 L 202 381 L 202 681.191406 L 71.792969 681.191406 Z M 71.792969 381 " clip-rule="nonzero"/></clipPath><clipPath id="a2717507d4"><path d="M 232 128.441406 L 682 128.441406 L 682 385 L 232 385 Z M 232 128.441406 " clip-rule="nonzero"/></clipPath></defs><g clip-path="url(#e48829711c)"><path fill="#ffffff" d="M 419.5 672.566406 C 354.378906 672.566406 284.242188 648.550781 249.113281 634.640625 C 241.359375 631.574219 209.578125 628.71875 189.492188 627.640625 C 188.757812 627.601562 188.03125 627.492188 187.320312 627.3125 C 186.605469 627.132812 185.917969 626.882812 185.253906 626.566406 C 184.585938 626.25 183.960938 625.871094 183.371094 625.429688 C 182.78125 624.992188 182.238281 624.496094 181.746094 623.949219 C 181.253906 623.402344 180.816406 622.8125 180.441406 622.183594 C 180.0625 621.550781 179.753906 620.886719 179.507812 620.191406 C 179.261719 619.5 179.085938 618.789062 178.980469 618.058594 C 178.871094 617.332031 178.839844 616.597656 178.875 615.863281 C 178.914062 615.128906 179.023438 614.402344 179.207031 613.691406 C 179.386719 612.976562 179.636719 612.289062 179.953125 611.621094 C 180.269531 610.957031 180.644531 610.332031 181.085938 609.742188 C 181.527344 609.152344 182.019531 608.609375 182.566406 608.117188 C 183.113281 607.625 183.703125 607.1875 184.335938 606.8125 C 184.96875 606.433594 185.632812 606.125 186.324219 605.878906 C 187.019531 605.632812 187.730469 605.457031 188.457031 605.347656 C 189.1875 605.242188 189.917969 605.210938 190.65625 605.246094 C 199.347656 605.695312 243.417969 608.242188 257.359375 613.757812 C 279.34375 622.460938 323.136719 638.207031 369.6875 645.78125 C 424.132812 654.652344 466.257812 650.132812 494.839844 632.34375 C 500.828125 628.605469 666.230469 543.890625 699.332031 526.941406 C 700.183594 526.484375 701.011719 525.988281 701.816406 525.449219 C 702.621094 524.910156 703.398438 524.335938 704.148438 523.722656 C 704.898438 523.109375 705.613281 522.460938 706.300781 521.78125 C 706.988281 521.097656 707.636719 520.382812 708.253906 519.636719 C 708.871094 518.894531 709.453125 518.117188 709.992188 517.316406 C 710.535156 516.515625 711.039062 515.6875 711.5 514.839844 C 711.960938 513.988281 712.382812 513.117188 712.757812 512.226562 C 713.136719 511.335938 713.46875 510.429688 713.757812 509.503906 C 714.046875 508.582031 714.292969 507.644531 714.492188 506.699219 C 714.691406 505.75 714.84375 504.796875 714.949219 503.835938 C 715.054688 502.875 715.117188 501.910156 715.128906 500.941406 C 715.140625 499.972656 715.105469 499.007812 715.027344 498.042969 C 714.945312 497.078125 714.816406 496.121094 714.644531 495.167969 C 714.46875 494.214844 714.25 493.273438 713.984375 492.34375 C 713.722656 491.414062 713.410156 490.496094 713.058594 489.597656 C 712.703125 488.695312 712.308594 487.8125 711.867188 486.953125 C 711.429688 486.089844 710.949219 485.25 710.429688 484.433594 C 709.910156 483.617188 709.347656 482.828125 708.753906 482.066406 C 708.15625 481.304688 707.523438 480.574219 706.855469 479.875 C 706.1875 479.175781 705.488281 478.507812 704.753906 477.875 C 704.023438 477.242188 703.261719 476.648438 702.46875 476.089844 C 701.679688 475.53125 700.863281 475.011719 700.023438 474.53125 C 699.183594 474.050781 698.320312 473.613281 697.4375 473.21875 C 696.554688 472.820312 695.65625 472.46875 694.738281 472.160156 C 693.820312 471.851562 692.890625 471.585938 691.949219 471.367188 C 691.007812 471.148438 690.054688 470.976562 689.097656 470.851562 C 688.136719 470.722656 687.171875 470.644531 686.207031 470.609375 C 685.238281 470.578125 684.273438 470.589844 683.304688 470.652344 C 682.339844 470.710938 681.378906 470.820312 680.425781 470.972656 C 679.46875 471.128906 678.523438 471.328125 677.585938 471.570312 C 676.652344 471.816406 675.726562 472.105469 674.820312 472.441406 C 673.914062 472.777344 673.023438 473.15625 672.152344 473.574219 L 516.460938 552.945312 C 515.808594 553.277344 515.125 553.546875 514.417969 553.746094 C 513.710938 553.945312 512.988281 554.074219 512.257812 554.128906 C 511.523438 554.1875 510.792969 554.171875 510.0625 554.085938 C 509.332031 554 508.617188 553.84375 507.917969 553.617188 C 507.21875 553.386719 506.546875 553.09375 505.90625 552.734375 C 505.265625 552.375 504.664062 551.957031 504.105469 551.480469 C 503.546875 551 503.039062 550.472656 502.585938 549.894531 C 502.128906 549.320312 501.734375 548.703125 501.402344 548.046875 C 501.070312 547.390625 500.800781 546.710938 500.601562 546.003906 C 500.402344 545.296875 500.277344 544.574219 500.21875 543.839844 C 500.160156 543.109375 500.175781 542.378906 500.261719 541.648438 C 500.347656 540.917969 500.503906 540.203125 500.734375 539.503906 C 500.960938 538.804688 501.253906 538.132812 501.613281 537.492188 C 501.972656 536.851562 502.390625 536.25 502.867188 535.691406 C 503.347656 535.132812 503.875 534.625 504.453125 534.171875 C 505.03125 533.714844 505.644531 533.320312 506.300781 532.988281 L 661.976562 453.671875 C 663.503906 452.898438 665.066406 452.199219 666.664062 451.574219 C 668.257812 450.953125 669.882812 450.40625 671.53125 449.945312 C 673.179688 449.480469 674.851562 449.097656 676.535156 448.796875 C 678.222656 448.496094 679.921875 448.28125 681.628906 448.148438 C 683.339844 448.015625 685.050781 447.964844 686.761719 448 C 688.476562 448.03125 690.183594 448.152344 691.886719 448.351562 C 693.585938 448.554688 695.273438 448.839844 696.949219 449.207031 C 698.621094 449.574219 700.273438 450.023438 701.90625 450.550781 C 703.535156 451.082031 705.132812 451.6875 706.703125 452.375 C 708.273438 453.0625 709.808594 453.824219 711.300781 454.660156 C 712.796875 455.496094 714.25 456.40625 715.65625 457.382812 C 717.0625 458.363281 718.417969 459.410156 719.722656 460.519531 C 721.023438 461.632812 722.269531 462.804688 723.460938 464.039062 C 724.648438 465.273438 725.773438 466.566406 726.835938 467.910156 C 727.898438 469.253906 728.890625 470.648438 729.816406 472.089844 C 730.742188 473.53125 731.59375 475.015625 732.375 476.542969 C 734.265625 480.210938 735.691406 484.050781 736.660156 488.0625 C 737.628906 492.070312 738.109375 496.140625 738.097656 500.265625 C 738.105469 502.671875 737.949219 505.0625 737.625 507.445312 C 737.300781 509.828125 736.8125 512.179688 736.164062 514.496094 C 735.515625 516.808594 734.707031 519.070312 733.746094 521.273438 C 732.785156 523.480469 731.675781 525.605469 730.417969 527.65625 C 729.164062 529.707031 727.769531 531.660156 726.246094 533.519531 C 724.71875 535.378906 723.070312 537.121094 721.304688 538.753906 C 719.535156 540.382812 717.664062 541.882812 715.6875 543.253906 C 713.710938 544.625 711.652344 545.855469 709.507812 546.941406 C 631.214844 587.023438 512.53125 647.964844 506.566406 651.460938 C 481.835938 666.855469 451.269531 672.566406 419.5 672.566406 Z M 419.5 672.566406 " fill-opacity="1" fill-rule="nonzero"/></g><path fill="#ffffff" d="M 475.707031 576.753906 L 474.8125 576.753906 L 367.867188 574.878906 C 367.132812 574.867188 366.40625 574.78125 365.6875 574.628906 C 364.96875 574.472656 364.269531 574.25 363.59375 573.957031 C 362.917969 573.664062 362.277344 573.308594 361.671875 572.890625 C 361.070312 572.472656 360.511719 571.996094 360 571.46875 C 359.488281 570.941406 359.03125 570.367188 358.632812 569.746094 C 358.234375 569.128906 357.898438 568.476562 357.628906 567.792969 C 357.359375 567.109375 357.15625 566.40625 357.027344 565.679688 C 356.894531 564.957031 356.835938 564.226562 356.847656 563.492188 C 356.859375 562.753906 356.945312 562.027344 357.101562 561.308594 C 357.257812 560.589844 357.480469 559.894531 357.773438 559.21875 C 358.066406 558.542969 358.421875 557.902344 358.84375 557.296875 C 359.261719 556.695312 359.738281 556.136719 360.265625 555.625 C 360.796875 555.113281 361.371094 554.660156 361.988281 554.261719 C 362.605469 553.863281 363.257812 553.527344 363.945312 553.261719 C 364.628906 552.992188 365.332031 552.789062 366.058594 552.660156 C 366.78125 552.527344 367.511719 552.46875 368.246094 552.484375 L 475.203125 554.34375 C 476.128906 554.363281 477.050781 554.332031 477.976562 554.257812 C 478.898438 554.183594 479.816406 554.066406 480.726562 553.902344 C 481.636719 553.738281 482.539062 553.527344 483.429688 553.273438 C 484.320312 553.023438 485.195312 552.726562 486.054688 552.386719 C 486.917969 552.046875 487.761719 551.667969 488.585938 551.246094 C 489.410156 550.824219 490.210938 550.363281 490.988281 549.859375 C 491.765625 549.359375 492.519531 548.820312 493.246094 548.246094 C 493.96875 547.671875 494.667969 547.0625 495.332031 546.421875 C 496 545.777344 496.632812 545.101562 497.230469 544.398438 C 497.828125 543.691406 498.394531 542.960938 498.921875 542.199219 C 499.449219 541.4375 499.9375 540.652344 500.386719 539.84375 C 500.839844 539.035156 501.246094 538.207031 501.617188 537.355469 C 501.984375 536.507812 502.3125 535.640625 502.59375 534.761719 C 502.878906 533.878906 503.117188 532.988281 503.3125 532.082031 C 503.511719 531.175781 503.660156 530.265625 503.765625 529.34375 C 503.875 528.425781 503.933594 527.503906 503.949219 526.578125 L 504.019531 523.203125 C 504.035156 522.277344 504.003906 521.355469 503.929688 520.433594 C 503.851562 519.511719 503.730469 518.59375 503.566406 517.683594 C 503.402344 516.773438 503.191406 515.875 502.9375 514.984375 C 502.683594 514.09375 502.386719 513.21875 502.046875 512.355469 C 501.707031 511.496094 501.324219 510.652344 500.902344 509.832031 C 500.480469 509.007812 500.019531 508.207031 499.519531 507.429688 C 499.019531 506.648438 498.480469 505.898438 497.90625 505.171875 C 497.332031 504.445312 496.722656 503.75 496.078125 503.085938 C 495.4375 502.421875 494.761719 501.789062 494.058594 501.1875 C 493.351562 500.585938 492.621094 500.023438 491.859375 499.496094 C 491.101562 498.96875 490.316406 498.480469 489.507812 498.027344 C 488.699219 497.578125 487.871094 497.167969 487.023438 496.796875 C 486.175781 496.425781 485.3125 496.097656 484.429688 495.8125 C 483.550781 495.53125 482.65625 495.289062 481.753906 495.089844 C 480.847656 494.894531 479.9375 494.738281 479.019531 494.632812 C 478.101562 494.523438 477.175781 494.460938 476.253906 494.441406 L 393.257812 493.042969 C 383.90625 492.875 314.8125 486.859375 291.199219 475.242188 C 279.824219 469.621094 267.957031 465.359375 255.605469 462.453125 C 243.253906 459.546875 230.734375 458.070312 218.042969 458.027344 L 190.050781 458.027344 C 189.316406 458.027344 188.589844 457.953125 187.867188 457.8125 C 187.148438 457.667969 186.445312 457.457031 185.769531 457.175781 C 185.089844 456.890625 184.441406 456.546875 183.832031 456.140625 C 183.21875 455.730469 182.65625 455.265625 182.136719 454.746094 C 181.617188 454.226562 181.152344 453.660156 180.742188 453.050781 C 180.335938 452.4375 179.988281 451.792969 179.707031 451.113281 C 179.425781 450.433594 179.214844 449.734375 179.070312 449.015625 C 178.925781 448.292969 178.855469 447.566406 178.855469 446.828125 C 178.855469 446.09375 178.925781 445.367188 179.070312 444.644531 C 179.214844 443.925781 179.425781 443.222656 179.707031 442.542969 C 179.988281 441.867188 180.335938 441.21875 180.742188 440.609375 C 181.152344 439.996094 181.617188 439.433594 182.136719 438.914062 C 182.65625 438.390625 183.21875 437.929688 183.832031 437.519531 C 184.441406 437.113281 185.089844 436.765625 185.769531 436.484375 C 186.445312 436.203125 187.148438 435.992188 187.867188 435.847656 C 188.589844 435.703125 189.316406 435.632812 190.050781 435.632812 L 218.042969 435.632812 C 225.222656 435.65625 232.375 436.085938 239.503906 436.925781 C 246.632812 437.761719 253.691406 439.003906 260.675781 440.644531 C 267.664062 442.285156 274.535156 444.320312 281.292969 446.742188 C 288.046875 449.167969 294.644531 451.96875 301.082031 455.144531 C 318.671875 463.804688 381.402344 470.441406 393.648438 470.652344 L 476.644531 472.050781 C 478.300781 472.082031 479.953125 472.191406 481.601562 472.386719 C 483.25 472.578125 484.882812 472.851562 486.503906 473.207031 C 488.125 473.558594 489.722656 473.992188 491.300781 474.5 C 492.878906 475.011719 494.425781 475.597656 495.949219 476.257812 C 497.46875 476.921875 498.953125 477.65625 500.402344 478.464844 C 501.847656 479.273438 503.253906 480.148438 504.617188 481.09375 C 505.980469 482.042969 507.292969 483.050781 508.554688 484.125 C 509.820312 485.199219 511.027344 486.335938 512.179688 487.527344 C 513.328125 488.71875 514.421875 489.96875 515.449219 491.265625 C 516.480469 492.566406 517.441406 493.914062 518.339844 495.308594 C 519.238281 496.703125 520.066406 498.140625 520.820312 499.613281 C 521.578125 501.089844 522.261719 502.601562 522.871094 504.140625 C 523.476562 505.683594 524.007812 507.253906 524.464844 508.847656 C 524.917969 510.445312 525.292969 512.058594 525.589844 513.6875 C 525.886719 515.320312 526.101562 516.964844 526.238281 518.617188 C 526.371094 520.269531 526.425781 521.925781 526.398438 523.582031 L 526.398438 526.957031 C 526.371094 528.597656 526.261719 530.234375 526.074219 531.863281 C 525.882812 533.496094 525.617188 535.113281 525.273438 536.71875 C 524.925781 538.320312 524.503906 539.90625 524.003906 541.46875 C 523.503906 543.035156 522.929688 544.570312 522.28125 546.078125 C 521.632812 547.585938 520.914062 549.058594 520.121094 550.496094 C 519.332031 551.933594 518.472656 553.332031 517.542969 554.6875 C 516.617188 556.039062 515.625 557.347656 514.574219 558.605469 C 513.519531 559.863281 512.40625 561.070312 511.234375 562.21875 C 510.0625 563.371094 508.839844 564.460938 507.5625 565.492188 C 506.285156 566.523438 504.960938 567.492188 503.589844 568.394531 C 502.21875 569.296875 500.808594 570.128906 499.355469 570.898438 C 497.902344 571.664062 496.417969 572.355469 494.898438 572.976562 C 493.378906 573.597656 491.832031 574.144531 490.261719 574.617188 C 488.6875 575.089844 487.097656 575.480469 485.488281 575.800781 C 483.875 576.117188 482.253906 576.355469 480.621094 576.511719 C 478.984375 576.671875 477.347656 576.753906 475.707031 576.753906 Z M 475.707031 576.753906 " fill-opacity="1" fill-rule="nonzero"/><g clip-path="url(#929aebb665)"><path fill="#ffffff" d="M 190.066406 681.523438 L 83.097656 681.523438 C 82.363281 681.523438 81.632812 681.453125 80.914062 681.308594 C 80.191406 681.167969 79.492188 680.953125 78.8125 680.671875 C 78.132812 680.390625 77.488281 680.046875 76.875 679.636719 C 76.265625 679.230469 75.699219 678.765625 75.179688 678.246094 C 74.660156 677.726562 74.195312 677.160156 73.789062 676.546875 C 73.378906 675.9375 73.035156 675.292969 72.753906 674.613281 C 72.472656 673.933594 72.257812 673.234375 72.117188 672.511719 C 71.972656 671.792969 71.898438 671.0625 71.898438 670.328125 L 71.898438 392.960938 C 71.898438 392.226562 71.972656 391.496094 72.117188 390.777344 C 72.257812 390.054688 72.472656 389.355469 72.753906 388.675781 C 73.035156 387.996094 73.378906 387.351562 73.789062 386.738281 C 74.195312 386.128906 74.660156 385.5625 75.179688 385.042969 C 75.699219 384.523438 76.265625 384.058594 76.875 383.648438 C 77.488281 383.242188 78.132812 382.898438 78.8125 382.617188 C 79.492188 382.335938 80.191406 382.121094 80.914062 381.976562 C 81.632812 381.835938 82.363281 381.761719 83.097656 381.761719 L 190.066406 381.761719 C 190.800781 381.761719 191.53125 381.835938 192.25 381.976562 C 192.972656 382.121094 193.671875 382.335938 194.351562 382.617188 C 195.03125 382.898438 195.675781 383.242188 196.285156 383.648438 C 196.898438 384.058594 197.464844 384.523438 197.984375 385.042969 C 198.503906 385.5625 198.96875 386.128906 199.375 386.738281 C 199.785156 387.351562 200.128906 387.996094 200.410156 388.675781 C 200.691406 389.355469 200.90625 390.054688 201.046875 390.777344 C 201.191406 391.496094 201.261719 392.226562 201.261719 392.960938 L 201.261719 670.328125 C 201.261719 671.0625 201.191406 671.792969 201.046875 672.511719 C 200.90625 673.234375 200.691406 673.933594 200.410156 674.613281 C 200.128906 675.292969 199.785156 675.9375 199.375 676.546875 C 198.96875 677.160156 198.503906 677.726562 197.984375 678.246094 C 197.464844 678.765625 196.898438 679.230469 196.285156 679.636719 C 195.675781 680.046875 195.03125 680.390625 194.351562 680.671875 C 193.671875 680.953125 192.972656 681.167969 192.25 681.308594 C 191.53125 681.453125 190.800781 681.523438 190.066406 681.523438 Z M 94.292969 659.132812 L 178.871094 659.132812 L 178.871094 404.15625 L 94.292969 404.15625 Z M 94.292969 659.132812 " fill-opacity="1" fill-rule="nonzero"/></g><path fill="#ffffff" d="M 136.589844 510.847656 C 135.851562 510.847656 135.125 510.773438 134.40625 510.632812 C 133.683594 510.488281 132.984375 510.273438 132.304688 509.992188 C 131.625 509.710938 130.980469 509.367188 130.367188 508.960938 C 129.757812 508.550781 129.191406 508.085938 128.671875 507.566406 C 128.152344 507.046875 127.6875 506.480469 127.277344 505.871094 C 126.871094 505.257812 126.527344 504.613281 126.246094 503.933594 C 125.964844 503.253906 125.75 502.554688 125.605469 501.832031 C 125.464844 501.113281 125.390625 500.386719 125.390625 499.648438 L 125.390625 437.089844 C 125.390625 436.351562 125.464844 435.625 125.605469 434.902344 C 125.75 434.183594 125.964844 433.484375 126.246094 432.804688 C 126.527344 432.125 126.871094 431.480469 127.277344 430.867188 C 127.6875 430.257812 128.152344 429.691406 128.671875 429.171875 C 129.191406 428.652344 129.757812 428.1875 130.367188 427.777344 C 130.980469 427.371094 131.625 427.027344 132.304688 426.742188 C 132.984375 426.460938 133.683594 426.25 134.40625 426.105469 C 135.125 425.964844 135.851562 425.890625 136.589844 425.890625 C 137.324219 425.890625 138.050781 425.964844 138.773438 426.105469 C 139.492188 426.25 140.195312 426.460938 140.875 426.742188 C 141.550781 427.027344 142.199219 427.371094 142.808594 427.777344 C 143.421875 428.1875 143.984375 428.652344 144.507812 429.171875 C 145.027344 429.691406 145.488281 430.257812 145.898438 430.867188 C 146.308594 431.480469 146.652344 432.125 146.933594 432.804688 C 147.214844 433.484375 147.425781 434.183594 147.570312 434.902344 C 147.714844 435.625 147.785156 436.351562 147.785156 437.089844 L 147.785156 499.648438 C 147.785156 500.386719 147.714844 501.113281 147.570312 501.832031 C 147.425781 502.554688 147.214844 503.253906 146.933594 503.933594 C 146.652344 504.613281 146.308594 505.257812 145.898438 505.871094 C 145.488281 506.480469 145.027344 507.046875 144.507812 507.566406 C 143.984375 508.085938 143.421875 508.550781 142.808594 508.960938 C 142.199219 509.367188 141.550781 509.710938 140.875 509.992188 C 140.195312 510.273438 139.492188 510.488281 138.773438 510.632812 C 138.050781 510.773438 137.324219 510.847656 136.589844 510.847656 Z M 136.589844 510.847656 " fill-opacity="1" fill-rule="nonzero"/><path fill="#ffffff" d="M 456.910156 302.828125 C 455.5 302.828125 454.09375 302.726562 452.699219 302.519531 C 451.300781 302.316406 449.929688 302.007812 448.578125 301.601562 C 447.226562 301.195312 445.910156 300.691406 444.632812 300.089844 C 443.355469 299.492188 442.128906 298.800781 440.953125 298.019531 C 439.777344 297.242188 438.664062 296.378906 437.613281 295.4375 C 436.566406 294.492188 435.589844 293.476562 434.6875 292.390625 C 433.789062 291.304688 432.972656 290.160156 432.238281 288.953125 C 431.507812 287.746094 430.867188 286.492188 430.316406 285.191406 C 430.03125 284.515625 429.8125 283.816406 429.664062 283.097656 C 429.515625 282.375 429.441406 281.648438 429.433594 280.914062 C 429.429688 280.179688 429.496094 279.449219 429.632812 278.726562 C 429.773438 278.003906 429.980469 277.304688 430.257812 276.621094 C 430.53125 275.941406 430.875 275.292969 431.277344 274.679688 C 431.679688 274.0625 432.140625 273.496094 432.65625 272.972656 C 433.175781 272.449219 433.738281 271.980469 434.34375 271.566406 C 434.953125 271.152344 435.597656 270.804688 436.273438 270.519531 C 436.949219 270.230469 437.648438 270.015625 438.371094 269.867188 C 439.089844 269.714844 439.816406 269.640625 440.550781 269.632812 C 441.289062 269.628906 442.015625 269.695312 442.738281 269.835938 C 443.460938 269.972656 444.164062 270.179688 444.84375 270.457031 C 445.523438 270.734375 446.171875 271.074219 446.789062 271.476562 C 447.402344 271.882812 447.96875 272.339844 448.496094 272.859375 C 449.019531 273.375 449.484375 273.9375 449.898438 274.542969 C 450.3125 275.152344 450.660156 275.796875 450.949219 276.472656 C 451.097656 276.832031 451.28125 277.171875 451.496094 277.5 C 451.707031 277.824219 451.949219 278.128906 452.214844 278.410156 C 452.484375 278.695312 452.773438 278.949219 453.085938 279.179688 C 453.402344 279.410156 453.734375 279.609375 454.082031 279.78125 C 454.433594 279.949219 454.796875 280.089844 455.171875 280.195312 C 455.542969 280.296875 455.925781 280.371094 456.3125 280.40625 C 456.699219 280.441406 457.089844 280.441406 457.476562 280.410156 C 457.863281 280.375 458.246094 280.308594 458.621094 280.207031 C 458.996094 280.105469 459.359375 279.96875 459.710938 279.800781 C 460.0625 279.632812 460.394531 279.4375 460.710938 279.207031 C 461.027344 278.980469 461.320312 278.726562 461.589844 278.445312 C 461.859375 278.164062 462.101562 277.863281 462.316406 277.539062 C 462.53125 277.214844 462.714844 276.875 462.871094 276.515625 C 463.023438 276.160156 463.144531 275.789062 463.230469 275.410156 C 463.320312 275.03125 463.371094 274.648438 463.390625 274.257812 C 463.410156 273.871094 463.394531 273.484375 463.339844 273.097656 C 463.289062 272.710938 463.203125 272.332031 463.085938 271.964844 C 462.964844 271.59375 462.8125 271.238281 462.628906 270.894531 C 462.445312 270.550781 462.234375 270.226562 461.992188 269.921875 C 461.75 269.617188 461.480469 269.335938 461.1875 269.082031 C 460.894531 268.824219 460.582031 268.59375 460.25 268.394531 C 459.914062 268.195312 459.566406 268.027344 459.203125 267.890625 C 458.839844 267.753906 458.464844 267.648438 458.082031 267.578125 C 457.699219 267.507812 457.3125 267.472656 456.925781 267.472656 C 456.074219 267.472656 455.222656 267.4375 454.375 267.359375 C 453.527344 267.285156 452.6875 267.171875 451.847656 267.023438 C 451.011719 266.875 450.179688 266.6875 449.359375 266.464844 C 448.539062 266.242188 447.730469 265.984375 446.929688 265.6875 C 446.132812 265.394531 445.347656 265.066406 444.578125 264.703125 C 443.8125 264.335938 443.058594 263.941406 442.324219 263.511719 C 441.589844 263.078125 440.878906 262.617188 440.183594 262.125 C 439.492188 261.632812 438.820312 261.109375 438.171875 260.554688 C 437.527344 260.003906 436.90625 259.421875 436.308594 258.816406 C 435.714844 258.207031 435.144531 257.574219 434.605469 256.917969 C 434.066406 256.261719 433.554688 255.578125 433.078125 254.878906 C 432.597656 254.175781 432.148438 253.453125 431.734375 252.710938 C 431.316406 251.96875 430.9375 251.207031 430.585938 250.429688 C 430.238281 249.65625 429.925781 248.863281 429.644531 248.0625 C 429.367188 247.257812 429.125 246.441406 428.917969 245.617188 C 428.710938 244.792969 428.539062 243.960938 428.40625 243.117188 C 428.273438 242.277344 428.179688 241.433594 428.121094 240.585938 C 428.0625 239.734375 428.039062 238.886719 428.058594 238.035156 C 428.074219 237.183594 428.128906 236.335938 428.21875 235.492188 C 428.3125 234.644531 428.441406 233.804688 428.605469 232.96875 C 428.773438 232.136719 428.972656 231.308594 429.214844 230.492188 C 429.453125 229.675781 429.726562 228.871094 430.035156 228.078125 C 430.347656 227.285156 430.691406 226.507812 431.070312 225.746094 C 431.449219 224.984375 431.859375 224.242188 432.304688 223.515625 C 432.75 222.789062 433.226562 222.085938 433.730469 221.402344 C 434.238281 220.71875 434.773438 220.058594 435.339844 219.421875 C 435.90625 218.789062 436.496094 218.175781 437.117188 217.59375 C 437.734375 217.011719 438.378906 216.453125 439.046875 215.929688 C 439.714844 215.402344 440.40625 214.90625 441.117188 214.4375 C 441.828125 213.972656 442.558594 213.539062 443.3125 213.136719 C 444.0625 212.738281 444.828125 212.371094 445.609375 212.035156 C 446.394531 211.703125 447.191406 211.40625 448 211.140625 C 448.808594 210.878906 449.628906 210.652344 450.457031 210.460938 C 451.285156 210.269531 452.121094 210.117188 452.964844 210 C 453.808594 209.882812 454.652344 209.804688 455.503906 209.761719 C 456.355469 209.71875 457.203125 209.714844 458.054688 209.75 C 458.902344 209.78125 459.75 209.851562 460.59375 209.960938 C 461.4375 210.070312 462.277344 210.214844 463.109375 210.398438 C 463.9375 210.578125 464.761719 210.796875 465.574219 211.050781 C 466.382812 211.308594 467.183594 211.597656 467.96875 211.921875 C 468.753906 212.25 469.527344 212.609375 470.28125 213 C 471.035156 213.394531 471.769531 213.820312 472.488281 214.28125 C 473.203125 214.738281 473.898438 215.226562 474.570312 215.746094 C 475.246094 216.269531 475.894531 216.816406 476.519531 217.394531 C 477.144531 217.972656 477.742188 218.574219 478.316406 219.207031 C 478.886719 219.835938 479.429688 220.492188 479.941406 221.167969 C 480.457031 221.847656 480.9375 222.546875 481.390625 223.269531 C 481.84375 223.988281 482.261719 224.726562 482.648438 225.484375 C 482.980469 226.140625 483.246094 226.824219 483.445312 227.53125 C 483.644531 228.238281 483.769531 228.957031 483.828125 229.691406 C 483.886719 230.421875 483.871094 231.152344 483.78125 231.882812 C 483.695312 232.613281 483.539062 233.328125 483.3125 234.027344 C 483.082031 234.722656 482.789062 235.394531 482.429688 236.035156 C 482.070312 236.675781 481.652344 237.273438 481.175781 237.832031 C 480.695312 238.390625 480.167969 238.898438 479.59375 239.351562 C 479.015625 239.808594 478.398438 240.203125 477.746094 240.535156 C 477.089844 240.867188 476.410156 241.136719 475.703125 241.335938 C 474.996094 241.535156 474.273438 241.664062 473.542969 241.71875 C 472.808594 241.777344 472.078125 241.761719 471.347656 241.675781 C 470.617188 241.589844 469.90625 241.433594 469.207031 241.207031 C 468.507812 240.980469 467.835938 240.6875 467.195312 240.328125 C 466.554688 239.96875 465.953125 239.550781 465.394531 239.074219 C 464.835938 238.597656 464.328125 238.070312 463.875 237.492188 C 463.417969 236.917969 463.023438 236.300781 462.691406 235.648438 C 462.515625 235.304688 462.316406 234.980469 462.085938 234.675781 C 461.855469 234.371094 461.601562 234.085938 461.320312 233.824219 C 461.039062 233.566406 460.738281 233.332031 460.414062 233.125 C 460.09375 232.917969 459.753906 232.738281 459.402344 232.589844 C 459.046875 232.445312 458.683594 232.328125 458.3125 232.246094 C 457.9375 232.164062 457.558594 232.113281 457.175781 232.097656 C 456.792969 232.082031 456.414062 232.101562 456.03125 232.152344 C 455.652344 232.203125 455.28125 232.289062 454.917969 232.40625 C 454.550781 232.523438 454.199219 232.671875 453.863281 232.851562 C 453.523438 233.03125 453.207031 233.242188 452.902344 233.476562 C 452.601562 233.714844 452.324219 233.976562 452.070312 234.261719 C 451.816406 234.546875 451.585938 234.851562 451.386719 235.179688 C 451.1875 235.503906 451.015625 235.847656 450.875 236.203125 C 450.738281 236.558594 450.628906 236.925781 450.554688 237.300781 C 450.480469 237.675781 450.4375 238.054688 450.429688 238.4375 C 450.421875 238.824219 450.449219 239.203125 450.507812 239.582031 C 450.566406 239.960938 450.660156 240.328125 450.785156 240.691406 C 450.910156 241.054688 451.066406 241.402344 451.253906 241.734375 C 451.441406 242.070312 451.65625 242.386719 451.898438 242.679688 C 452.140625 242.976562 452.40625 243.25 452.699219 243.5 C 452.988281 243.746094 453.300781 243.96875 453.628906 244.164062 C 453.960938 244.355469 454.304688 244.519531 454.664062 244.652344 C 455.023438 244.785156 455.394531 244.882812 455.769531 244.953125 C 456.148438 245.019531 456.527344 245.050781 456.910156 245.050781 C 457.855469 245.050781 458.800781 245.097656 459.738281 245.191406 C 460.679688 245.285156 461.617188 245.421875 462.542969 245.605469 C 463.46875 245.792969 464.386719 246.019531 465.292969 246.296875 C 466.195312 246.570312 467.085938 246.886719 467.960938 247.25 C 468.832031 247.613281 469.6875 248.015625 470.519531 248.460938 C 471.355469 248.90625 472.164062 249.394531 472.953125 249.917969 C 473.738281 250.445312 474.496094 251.007812 475.226562 251.605469 C 475.957031 252.207031 476.65625 252.839844 477.328125 253.507812 C 477.996094 254.179688 478.628906 254.878906 479.230469 255.609375 C 479.828125 256.339844 480.390625 257.097656 480.917969 257.882812 C 481.441406 258.671875 481.929688 259.480469 482.375 260.316406 C 482.820312 261.148438 483.222656 262.003906 483.585938 262.875 C 483.949219 263.75 484.265625 264.640625 484.539062 265.542969 C 484.816406 266.449219 485.042969 267.367188 485.226562 268.292969 C 485.414062 269.21875 485.550781 270.15625 485.644531 271.09375 C 485.738281 272.035156 485.785156 272.980469 485.785156 273.925781 C 485.785156 274.871094 485.738281 275.816406 485.644531 276.753906 C 485.550781 277.695312 485.414062 278.632812 485.226562 279.558594 C 485.042969 280.484375 484.816406 281.402344 484.539062 282.308594 C 484.265625 283.210938 483.949219 284.101562 483.585938 284.976562 C 483.222656 285.847656 482.820312 286.703125 482.375 287.535156 C 481.929688 288.371094 481.441406 289.179688 480.917969 289.964844 C 480.390625 290.753906 479.828125 291.511719 479.230469 292.242188 C 478.628906 292.972656 477.996094 293.671875 477.328125 294.34375 C 476.65625 295.011719 475.957031 295.644531 475.226562 296.246094 C 474.496094 296.84375 473.738281 297.40625 472.953125 297.933594 C 472.164062 298.457031 471.355469 298.945312 470.519531 299.390625 C 469.6875 299.835938 468.832031 300.238281 467.960938 300.601562 C 467.085938 300.964844 466.195312 301.28125 465.292969 301.554688 C 464.386719 301.832031 463.46875 302.058594 462.542969 302.246094 C 461.617188 302.429688 460.679688 302.566406 459.738281 302.660156 C 458.800781 302.753906 457.855469 302.800781 456.910156 302.800781 Z M 456.910156 302.828125 " fill-opacity="1" fill-rule="nonzero"/><path fill="#ffffff" d="M 456.910156 232.050781 C 456.175781 232.050781 455.445312 231.980469 454.726562 231.835938 C 454.003906 231.691406 453.304688 231.480469 452.625 231.199219 C 451.945312 230.917969 451.300781 230.570312 450.691406 230.164062 C 450.078125 229.753906 449.511719 229.289062 448.992188 228.769531 C 448.472656 228.25 448.007812 227.683594 447.601562 227.074219 C 447.191406 226.464844 446.847656 225.816406 446.566406 225.136719 C 446.285156 224.460938 446.070312 223.757812 445.929688 223.039062 C 445.785156 222.316406 445.714844 221.589844 445.714844 220.855469 L 445.714844 207.65625 C 445.714844 206.921875 445.785156 206.191406 445.929688 205.472656 C 446.070312 204.75 446.285156 204.050781 446.566406 203.371094 C 446.847656 202.691406 447.191406 202.046875 447.601562 201.433594 C 448.007812 200.824219 448.472656 200.257812 448.992188 199.738281 C 449.511719 199.21875 450.078125 198.753906 450.691406 198.347656 C 451.300781 197.9375 451.945312 197.59375 452.625 197.3125 C 453.304688 197.03125 454.003906 196.816406 454.726562 196.675781 C 455.445312 196.53125 456.175781 196.460938 456.910156 196.460938 C 457.644531 196.460938 458.375 196.53125 459.09375 196.675781 C 459.816406 196.816406 460.515625 197.03125 461.195312 197.3125 C 461.875 197.59375 462.519531 197.9375 463.128906 198.347656 C 463.742188 198.753906 464.308594 199.21875 464.828125 199.738281 C 465.347656 200.257812 465.8125 200.824219 466.21875 201.433594 C 466.628906 202.046875 466.972656 202.691406 467.253906 203.371094 C 467.535156 204.050781 467.75 204.75 467.890625 205.472656 C 468.035156 206.191406 468.105469 206.921875 468.105469 207.65625 L 468.105469 220.824219 C 468.109375 221.5625 468.039062 222.292969 467.894531 223.015625 C 467.753906 223.738281 467.542969 224.4375 467.261719 225.117188 C 466.980469 225.800781 466.636719 226.445312 466.230469 227.058594 C 465.820312 227.671875 465.355469 228.238281 464.835938 228.761719 C 464.316406 229.28125 463.75 229.746094 463.140625 230.15625 C 462.527344 230.566406 461.882812 230.914062 461.203125 231.195312 C 460.519531 231.476562 459.820312 231.691406 459.097656 231.835938 C 458.375 231.976562 457.644531 232.050781 456.910156 232.050781 Z M 456.910156 232.050781 " fill-opacity="1" fill-rule="nonzero"/><path fill="#ffffff" d="M 456.910156 315.925781 C 456.175781 315.925781 455.445312 315.855469 454.726562 315.710938 C 454.003906 315.570312 453.304688 315.355469 452.625 315.074219 C 451.945312 314.792969 451.300781 314.449219 450.691406 314.039062 C 450.078125 313.632812 449.511719 313.167969 448.992188 312.648438 C 448.472656 312.128906 448.007812 311.5625 447.601562 310.949219 C 447.191406 310.339844 446.847656 309.695312 446.566406 309.015625 C 446.285156 308.335938 446.070312 307.636719 445.929688 306.914062 C 445.785156 306.195312 445.714844 305.464844 445.714844 304.730469 L 445.714844 291.628906 C 445.714844 290.894531 445.785156 290.167969 445.929688 289.445312 C 446.070312 288.726562 446.285156 288.023438 446.566406 287.34375 C 446.847656 286.667969 447.191406 286.019531 447.601562 285.410156 C 448.007812 284.796875 448.472656 284.234375 448.992188 283.714844 C 449.511719 283.191406 450.078125 282.730469 450.691406 282.320312 C 451.300781 281.914062 451.945312 281.566406 452.625 281.285156 C 453.304688 281.003906 454.003906 280.792969 454.726562 280.648438 C 455.445312 280.503906 456.175781 280.433594 456.910156 280.433594 C 457.644531 280.433594 458.375 280.503906 459.09375 280.648438 C 459.816406 280.792969 460.515625 281.003906 461.195312 281.285156 C 461.875 281.566406 462.519531 281.914062 463.128906 282.320312 C 463.742188 282.730469 464.308594 283.191406 464.828125 283.714844 C 465.347656 284.234375 465.8125 284.796875 466.21875 285.410156 C 466.628906 286.019531 466.972656 286.667969 467.253906 287.34375 C 467.535156 288.023438 467.75 288.726562 467.890625 289.445312 C 468.035156 290.167969 468.105469 290.894531 468.105469 291.628906 L 468.105469 304.800781 C 468.101562 305.53125 468.027344 306.257812 467.878906 306.976562 C 467.734375 307.691406 467.519531 308.386719 467.234375 309.0625 C 466.949219 309.738281 466.605469 310.378906 466.195312 310.988281 C 465.785156 311.59375 465.320312 312.15625 464.800781 312.671875 C 464.285156 313.1875 463.71875 313.648438 463.109375 314.054688 C 462.5 314.460938 461.855469 314.800781 461.179688 315.082031 C 460.5 315.359375 459.804688 315.570312 459.085938 315.714844 C 458.367188 315.855469 457.640625 315.925781 456.910156 315.925781 Z M 456.910156 315.925781 " fill-opacity="1" fill-rule="nonzero"/><g clip-path="url(#a2717507d4)"><path fill="#ffffff" d="M 670.023438 384.003906 L 243.78125 384.003906 C 243.046875 384.003906 242.320312 383.929688 241.597656 383.789062 C 240.875 383.644531 240.175781 383.429688 239.496094 383.148438 C 238.816406 382.867188 238.171875 382.523438 237.5625 382.117188 C 236.949219 381.707031 236.386719 381.242188 235.863281 380.722656 C 235.34375 380.203125 234.882812 379.636719 234.472656 379.027344 C 234.0625 378.414062 233.71875 377.769531 233.4375 377.089844 C 233.15625 376.410156 232.945312 375.710938 232.800781 374.988281 C 232.65625 374.269531 232.585938 373.542969 232.585938 372.804688 L 232.585938 139.664062 C 232.585938 138.929688 232.65625 138.199219 232.800781 137.480469 C 232.945312 136.757812 233.15625 136.058594 233.4375 135.378906 C 233.71875 134.699219 234.0625 134.054688 234.472656 133.445312 C 234.882812 132.832031 235.34375 132.265625 235.863281 131.746094 C 236.386719 131.226562 236.949219 130.761719 237.5625 130.355469 C 238.171875 129.945312 238.816406 129.601562 239.496094 129.320312 C 240.175781 129.039062 240.875 128.824219 241.597656 128.683594 C 242.320312 128.539062 243.046875 128.46875 243.78125 128.46875 L 670.023438 128.46875 C 670.757812 128.46875 671.488281 128.539062 672.207031 128.683594 C 672.929688 128.824219 673.628906 129.039062 674.308594 129.320312 C 674.988281 129.601562 675.632812 129.945312 676.246094 130.355469 C 676.855469 130.761719 677.421875 131.226562 677.941406 131.746094 C 678.460938 132.265625 678.925781 132.832031 679.332031 133.445312 C 679.742188 134.054688 680.085938 134.699219 680.367188 135.378906 C 680.648438 136.058594 680.863281 136.757812 681.003906 137.480469 C 681.148438 138.199219 681.21875 138.929688 681.21875 139.664062 L 681.21875 372.804688 C 681.21875 373.542969 681.148438 374.269531 681.003906 374.988281 C 680.863281 375.710938 680.648438 376.410156 680.367188 377.089844 C 680.085938 377.769531 679.742188 378.414062 679.332031 379.027344 C 678.925781 379.636719 678.460938 380.203125 677.941406 380.722656 C 677.421875 381.242188 676.855469 381.707031 676.246094 382.117188 C 675.632812 382.523438 674.988281 382.867188 674.308594 383.148438 C 673.628906 383.429688 672.929688 383.644531 672.207031 383.789062 C 671.488281 383.929688 670.757812 384.003906 670.023438 384.003906 Z M 254.980469 361.609375 L 658.828125 361.609375 L 658.828125 150.859375 L 254.980469 150.859375 Z M 254.980469 361.609375 " fill-opacity="1" fill-rule="nonzero"/></g><path fill="#ffffff" d="M 590.765625 344.8125 L 323.039062 344.8125 C 322.304688 344.8125 321.578125 344.742188 320.855469 344.597656 C 320.136719 344.457031 319.433594 344.242188 318.753906 343.960938 C 318.078125 343.679688 317.429688 343.335938 316.820312 342.925781 C 316.207031 342.519531 315.644531 342.054688 315.125 341.535156 C 314.601562 341.015625 314.140625 340.449219 313.730469 339.839844 C 313.324219 339.226562 312.976562 338.582031 312.695312 337.902344 C 312.414062 337.222656 312.203125 336.523438 312.058594 335.800781 C 311.914062 335.082031 311.84375 334.351562 311.84375 333.617188 C 311.84375 332.671875 311.792969 331.726562 311.699219 330.785156 C 311.605469 329.84375 311.46875 328.910156 311.28125 327.984375 C 311.097656 327.054688 310.867188 326.140625 310.589844 325.234375 C 310.3125 324.328125 309.996094 323.441406 309.632812 322.566406 C 309.269531 321.691406 308.863281 320.839844 308.417969 320.003906 C 307.972656 319.171875 307.484375 318.359375 306.960938 317.574219 C 306.433594 316.789062 305.871094 316.03125 305.269531 315.296875 C 304.667969 314.566406 304.035156 313.867188 303.367188 313.199219 C 302.695312 312.53125 301.996094 311.894531 301.265625 311.296875 C 300.535156 310.695312 299.773438 310.132812 298.988281 309.605469 C 298.203125 309.082031 297.390625 308.59375 296.558594 308.148438 C 295.722656 307.703125 294.867188 307.300781 293.996094 306.9375 C 293.121094 306.574219 292.230469 306.253906 291.328125 305.980469 C 290.421875 305.707031 289.503906 305.476562 288.578125 305.289062 C 287.648438 305.105469 286.714844 304.964844 285.773438 304.871094 C 284.832031 304.777344 283.886719 304.730469 282.941406 304.730469 C 282.207031 304.730469 281.480469 304.660156 280.757812 304.515625 C 280.035156 304.371094 279.335938 304.160156 278.65625 303.878906 C 277.980469 303.597656 277.332031 303.25 276.722656 302.84375 C 276.109375 302.433594 275.546875 301.972656 275.023438 301.449219 C 274.503906 300.929688 274.042969 300.367188 273.632812 299.753906 C 273.222656 299.144531 272.878906 298.496094 272.597656 297.820312 C 272.316406 297.140625 272.105469 296.4375 271.960938 295.71875 C 271.816406 294.996094 271.746094 294.269531 271.746094 293.535156 L 271.746094 218.851562 C 271.746094 218.117188 271.816406 217.390625 271.960938 216.667969 C 272.105469 215.945312 272.316406 215.246094 272.597656 214.566406 C 272.878906 213.886719 273.222656 213.242188 273.632812 212.632812 C 274.042969 212.019531 274.503906 211.453125 275.023438 210.933594 C 275.546875 210.414062 276.109375 209.949219 276.722656 209.542969 C 277.332031 209.132812 277.980469 208.789062 278.65625 208.507812 C 279.335938 208.226562 280.039062 208.015625 280.757812 207.871094 C 281.480469 207.726562 282.207031 207.65625 282.941406 207.65625 C 283.886719 207.65625 284.828125 207.609375 285.769531 207.515625 C 286.710938 207.421875 287.644531 207.28125 288.570312 207.097656 C 289.496094 206.914062 290.414062 206.683594 291.316406 206.410156 C 292.21875 206.132812 293.109375 205.816406 293.980469 205.453125 C 294.855469 205.09375 295.707031 204.691406 296.542969 204.246094 C 297.375 203.800781 298.183594 203.316406 298.972656 202.789062 C 299.757812 202.265625 300.515625 201.703125 301.246094 201.105469 C 301.976562 200.507812 302.675781 199.875 303.347656 199.207031 C 304.015625 198.539062 304.648438 197.839844 305.25 197.113281 C 305.851562 196.382812 306.414062 195.625 306.941406 194.839844 C 307.464844 194.054688 307.953125 193.246094 308.398438 192.414062 C 308.847656 191.582031 309.253906 190.730469 309.617188 189.859375 C 309.980469 188.988281 310.300781 188.097656 310.578125 187.195312 C 310.851562 186.292969 311.085938 185.378906 311.273438 184.449219 C 311.457031 183.523438 311.601562 182.589844 311.695312 181.652344 C 311.792969 180.710938 311.839844 179.769531 311.84375 178.824219 C 311.84375 178.089844 311.914062 177.359375 312.058594 176.640625 C 312.203125 175.917969 312.414062 175.21875 312.695312 174.539062 C 312.976562 173.859375 313.324219 173.214844 313.730469 172.605469 C 314.140625 171.992188 314.601562 171.425781 315.125 170.90625 C 315.644531 170.386719 316.207031 169.921875 316.820312 169.515625 C 317.429688 169.105469 318.078125 168.761719 318.753906 168.480469 C 319.433594 168.199219 320.136719 167.984375 320.855469 167.84375 C 321.578125 167.699219 322.304688 167.628906 323.039062 167.628906 L 590.765625 167.628906 C 591.5 167.628906 592.230469 167.699219 592.949219 167.84375 C 593.671875 167.984375 594.371094 168.199219 595.050781 168.480469 C 595.730469 168.761719 596.375 169.105469 596.984375 169.515625 C 597.597656 169.921875 598.164062 170.386719 598.683594 170.90625 C 599.203125 171.425781 599.667969 171.992188 600.074219 172.605469 C 600.484375 173.214844 600.828125 173.859375 601.109375 174.539062 C 601.390625 175.21875 601.605469 175.917969 601.746094 176.640625 C 601.890625 177.359375 601.960938 178.089844 601.960938 178.824219 C 601.964844 179.769531 602.015625 180.710938 602.109375 181.652344 C 602.207031 182.589844 602.347656 183.523438 602.535156 184.449219 C 602.722656 185.378906 602.953125 186.292969 603.230469 187.195312 C 603.507812 188.097656 603.828125 188.988281 604.191406 189.859375 C 604.554688 190.730469 604.957031 191.582031 605.40625 192.414062 C 605.851562 193.246094 606.339844 194.054688 606.867188 194.839844 C 607.390625 195.625 607.957031 196.382812 608.554688 197.113281 C 609.15625 197.839844 609.792969 198.539062 610.460938 199.207031 C 611.128906 199.875 611.828125 200.507812 612.558594 201.105469 C 613.289062 201.703125 614.050781 202.265625 614.835938 202.789062 C 615.621094 203.316406 616.429688 203.800781 617.265625 204.246094 C 618.097656 204.691406 618.949219 205.09375 619.824219 205.453125 C 620.695312 205.816406 621.585938 206.132812 622.488281 206.410156 C 623.394531 206.683594 624.308594 206.914062 625.234375 207.097656 C 626.164062 207.28125 627.097656 207.421875 628.035156 207.515625 C 628.976562 207.609375 629.917969 207.65625 630.863281 207.65625 C 631.597656 207.65625 632.328125 207.726562 633.046875 207.871094 C 633.769531 208.015625 634.46875 208.226562 635.148438 208.507812 C 635.828125 208.789062 636.472656 209.132812 637.085938 209.542969 C 637.695312 209.949219 638.261719 210.414062 638.78125 210.933594 C 639.300781 211.453125 639.765625 212.019531 640.171875 212.632812 C 640.582031 213.242188 640.925781 213.886719 641.207031 214.566406 C 641.488281 215.246094 641.703125 215.945312 641.84375 216.667969 C 641.988281 217.390625 642.058594 218.117188 642.058594 218.851562 L 642.058594 293.449219 C 642.058594 294.183594 641.988281 294.914062 641.84375 295.632812 C 641.703125 296.355469 641.488281 297.054688 641.207031 297.734375 C 640.925781 298.414062 640.582031 299.058594 640.171875 299.671875 C 639.765625 300.28125 639.300781 300.847656 638.78125 301.367188 C 638.261719 301.886719 637.695312 302.351562 637.085938 302.757812 C 636.472656 303.167969 635.828125 303.511719 635.148438 303.792969 C 634.46875 304.074219 633.769531 304.289062 633.046875 304.429688 C 632.328125 304.574219 631.597656 304.644531 630.863281 304.644531 C 629.914062 304.648438 628.96875 304.695312 628.027344 304.789062 C 627.085938 304.882812 626.148438 305.023438 625.21875 305.207031 C 624.289062 305.394531 623.371094 305.625 622.464844 305.902344 C 621.558594 306.175781 620.667969 306.496094 619.792969 306.859375 C 618.917969 307.222656 618.0625 307.628906 617.226562 308.078125 C 616.390625 308.523438 615.578125 309.011719 614.792969 309.539062 C 614.003906 310.066406 613.246094 310.632812 612.511719 311.234375 C 611.78125 311.835938 611.082031 312.472656 610.410156 313.144531 C 609.742188 313.816406 609.105469 314.515625 608.507812 315.25 C 607.90625 315.984375 607.34375 316.746094 606.816406 317.535156 C 606.292969 318.324219 605.804688 319.136719 605.359375 319.972656 C 604.914062 320.808594 604.511719 321.664062 604.148438 322.539062 C 603.789062 323.417969 603.46875 324.308594 603.195312 325.214844 C 602.921875 326.121094 602.695312 327.042969 602.511719 327.972656 C 602.328125 328.902344 602.1875 329.835938 602.097656 330.78125 C 602.007812 331.722656 601.960938 332.671875 601.960938 333.617188 C 601.960938 334.351562 601.890625 335.082031 601.746094 335.800781 C 601.605469 336.523438 601.390625 337.222656 601.109375 337.902344 C 600.828125 338.582031 600.484375 339.226562 600.074219 339.839844 C 599.667969 340.449219 599.203125 341.015625 598.683594 341.535156 C 598.164062 342.054688 597.597656 342.519531 596.984375 342.925781 C 596.375 343.335938 595.730469 343.679688 595.050781 343.960938 C 594.371094 344.242188 593.671875 344.457031 592.949219 344.597656 C 592.230469 344.742188 591.5 344.8125 590.765625 344.8125 Z M 333.003906 322.421875 L 580.800781 322.421875 C 581.332031 320.0625 582.03125 317.75 582.890625 315.488281 C 583.75 313.226562 584.761719 311.035156 585.929688 308.917969 C 587.097656 306.796875 588.410156 304.773438 589.863281 302.835938 C 591.316406 300.902344 592.902344 299.082031 594.613281 297.371094 C 596.324219 295.660156 598.144531 294.078125 600.082031 292.625 C 602.015625 291.171875 604.042969 289.859375 606.160156 288.695312 C 608.28125 287.527344 610.472656 286.511719 612.734375 285.65625 C 614.996094 284.796875 617.308594 284.101562 619.667969 283.570312 L 619.667969 228.875 C 617.308594 228.339844 614.996094 227.644531 612.734375 226.789062 C 610.472656 225.929688 608.28125 224.917969 606.160156 223.75 C 604.042969 222.582031 602.015625 221.269531 600.082031 219.816406 C 598.144531 218.363281 596.324219 216.78125 594.613281 215.070312 C 592.902344 213.359375 591.316406 211.539062 589.863281 209.605469 C 588.410156 207.671875 587.097656 205.644531 585.929688 203.523438 C 584.761719 201.40625 583.75 199.214844 582.890625 196.953125 C 582.03125 194.691406 581.332031 192.382812 580.800781 190.019531 L 333.074219 190.019531 C 332.542969 192.382812 331.847656 194.691406 330.988281 196.957031 C 330.128906 199.21875 329.117188 201.40625 327.949219 203.527344 C 326.78125 205.648438 325.46875 207.671875 324.015625 209.609375 C 322.5625 211.542969 320.980469 213.363281 319.269531 215.074219 C 317.554688 216.785156 315.734375 218.367188 313.800781 219.820312 C 311.863281 221.273438 309.835938 222.585938 307.71875 223.75 C 305.597656 224.917969 303.40625 225.929688 301.144531 226.789062 C 298.882812 227.648438 296.570312 228.34375 294.210938 228.875 L 294.210938 283.539062 C 296.566406 284.074219 298.875 284.773438 301.136719 285.632812 C 303.394531 286.496094 305.585938 287.511719 307.703125 288.679688 C 309.816406 289.847656 311.84375 291.160156 313.773438 292.617188 C 315.707031 294.070312 317.523438 295.65625 319.234375 297.367188 C 320.941406 299.078125 322.519531 300.902344 323.972656 302.835938 C 325.421875 304.769531 326.730469 306.796875 327.894531 308.917969 C 329.0625 311.035156 330.070312 313.226562 330.925781 315.488281 C 331.78125 317.75 332.476562 320.0625 333.003906 322.421875 Z M 333.003906 322.421875 " fill-opacity="1" fill-rule="nonzero"/></svg>