<svg xmlns="http://www.w3.org/2000/svg" xmlns:xlink="http://www.w3.org/1999/xlink" width="1080" zoomAndPan="magnify" viewBox="0 0 810 809.999993" height="1080" preserveAspectRatio="xMidYMid meet" version="1.0"><defs><clipPath id="e705d7c0e2"><path d="M 286 261.226562 L 727 261.226562 L 727 548.476562 L 286 548.476562 Z M 286 261.226562 " clip-rule="nonzero"/></clipPath></defs><g clip-path="url(#e705d7c0e2)"><path fill="#ffffff" d="M 308.335938 496.957031 L 344.734375 317.316406 C 345.851562 311.828125 348.378906 306.65625 351.707031 301.992188 L 467.503906 412.570312 C 477.332031 421.960938 490.355469 426.679688 504.167969 426.679688 C 517.421875 426.679688 531.410156 422.339844 544.035156 413.640625 L 704.742188 302.949219 C 705.164062 306.136719 705.152344 309.503906 704.441406 313.035156 L 668.042969 492.675781 C 664.25 511.390625 645.320312 527.199219 626.699219 527.199219 L 332.199219 527.199219 C 324.132812 527.199219 317.25 524.222656 312.828125 518.820312 C 308.214844 513.183594 306.621094 505.414062 308.335938 496.957031 Z M 371.671875 285.871094 C 376.316406 283.929688 381.203125 282.792969 386.085938 282.792969 L 680.585938 282.792969 C 684.921875 282.792969 688.859375 283.710938 692.308594 285.339844 L 691.617188 285.8125 L 531.808594 395.890625 C 514.78125 407.601562 494 408.070312 482.390625 396.976562 L 366.046875 285.871094 Z M 710.621094 285.8125 Z M 332.199219 548.753906 L 626.699219 548.753906 C 655.847656 548.753906 683.28125 526.003906 689.167969 496.957031 L 725.558594 317.316406 C 728.585938 302.394531 725.421875 288.265625 716.640625 277.53125 C 708.050781 267.023438 695.246094 261.238281 680.585938 261.238281 L 386.085938 261.238281 C 356.945312 261.238281 329.5 283.988281 323.613281 313.035156 L 287.214844 492.675781 C 284.1875 507.597656 287.359375 521.730469 296.140625 532.46875 C 304.730469 542.972656 317.539062 548.753906 332.199219 548.753906 " fill-opacity="1" fill-rule="nonzero"/></g><path fill="#ffffff" d="M 91.65625 343.492188 L 277.570312 343.492188 C 283.242188 343.492188 287.839844 338.894531 287.839844 333.222656 C 287.839844 327.546875 283.242188 322.949219 277.570312 322.949219 L 91.65625 322.949219 C 85.984375 322.949219 81.386719 327.546875 81.386719 333.222656 C 81.386719 338.894531 85.984375 343.492188 91.65625 343.492188 " fill-opacity="1" fill-rule="nonzero"/><path fill="#ffffff" d="M 269.945312 390.582031 C 269.945312 384.910156 265.355469 380.3125 259.679688 380.3125 L 148.101562 380.3125 C 142.429688 380.3125 137.839844 384.910156 137.839844 390.582031 C 137.839844 396.253906 142.429688 400.851562 148.101562 400.851562 L 259.679688 400.851562 C 265.355469 400.851562 269.945312 396.253906 269.945312 390.582031 " fill-opacity="1" fill-rule="nonzero"/><path fill="#ffffff" d="M 191.476562 437.648438 C 185.808594 437.648438 181.214844 442.253906 181.214844 447.921875 C 181.214844 453.59375 185.808594 458.191406 191.476562 458.191406 L 245.898438 458.191406 C 251.570312 458.191406 256.167969 453.59375 256.167969 447.921875 C 256.167969 442.253906 251.570312 437.648438 245.898438 437.648438 L 191.476562 437.648438 " fill-opacity="1" fill-rule="nonzero"/></svg>