<svg xmlns="http://www.w3.org/2000/svg" xmlns:xlink="http://www.w3.org/1999/xlink" width="500" zoomAndPan="magnify" viewBox="0 0 375 374.999991" height="500" preserveAspectRatio="xMidYMid meet" version="1.0"><defs><g/><clipPath id="89302f85eb"><path d="M 77.324219 77.324219 L 297.675781 77.324219 L 297.675781 297.675781 L 77.324219 297.675781 Z M 77.324219 77.324219 " clip-rule="nonzero"/></clipPath><clipPath id="7eb64a99cf"><path d="M 187.5 77.324219 C 126.652344 77.324219 77.324219 126.652344 77.324219 187.5 C 77.324219 248.347656 126.652344 297.675781 187.5 297.675781 C 248.347656 297.675781 297.675781 248.347656 297.675781 187.5 C 297.675781 126.652344 248.347656 77.324219 187.5 77.324219 Z M 187.5 77.324219 " clip-rule="nonzero"/></clipPath></defs><g clip-path="url(#89302f85eb)"><g clip-path="url(#7eb64a99cf)"><path fill="#450000" d="M 77.324219 77.324219 L 297.675781 77.324219 L 297.675781 297.675781 L 77.324219 297.675781 Z M 77.324219 77.324219 " fill-opacity="1" fill-rule="nonzero"/></g></g><g fill="#ffffff" fill-opacity="1"><g transform="translate(97.07387, 249.64067)"><g><path d="M 9.328125 -9.046875 C 9.328125 -12.15625 9.046875 -13.5625 9.046875 -15.546875 C 8.484375 -18.359375 9.328125 -18.65625 9.328125 -21.75 C 9.609375 -27.96875 10.171875 -51.140625 14.125 -55.375 C 14.40625 -55.375 16.109375 -55.953125 16.109375 -57.359375 C 16.109375 -59.90625 14.96875 -62.15625 13.28125 -62.15625 C 11.578125 -62.15625 9.609375 -59.625 7.90625 -51.703125 C 6.21875 -43.234375 -3.390625 4.796875 8.765625 4.796875 C 13.84375 4.796875 16.671875 -7.90625 18.359375 -12.4375 C 20.34375 -19.21875 22.609375 -25.71875 25.140625 -32.5 L 40.6875 -69.796875 C 40.6875 -69.796875 40.96875 -70.078125 40.96875 -70.359375 C 40.96875 -56.796875 38.421875 -0.5625 46.90625 4.796875 C 48.03125 5.375 49.171875 5.9375 50.015625 5.9375 C 53.6875 5.9375 56.234375 1.40625 57.921875 -1.703125 L 68.375 -22.046875 C 69.796875 -24.296875 70.640625 -25.71875 72.046875 -28.53125 C 73.75 -31.640625 77.703125 -39.84375 79.96875 -41.25 C 80.53125 -33.625 88.4375 -14.40625 100.03125 -14.40625 C 110.765625 -14.40625 129.40625 -28.25 129.40625 -31.921875 C 129.40625 -33.90625 128.5625 -34.46875 127.4375 -34.46875 C 122.34375 -34.46875 108.5 -21.1875 100.59375 -21.1875 C 88.15625 -21.1875 88.71875 -47.75 81.375 -49.734375 C 81.09375 -49.734375 80.8125 -50.015625 80.25 -50.015625 C 75.734375 -50.015625 72.34375 -41.53125 70.359375 -38.140625 C 69.234375 -36.171875 68.65625 -35.03125 67.53125 -32.78125 L 61.875 -22.328125 C 59.90625 -18.359375 58.484375 -15.265625 56.515625 -11.875 C 54.8125 -9.046875 52.5625 -3.390625 50.296875 -1.703125 C 50.015625 -5.09375 49.171875 -7.625 48.890625 -11.296875 C 48.59375 -22.328125 47.75 -31.921875 48.3125 -44.640625 L 48.890625 -66.96875 C 48.890625 -74.59375 50.015625 -85.046875 43.515625 -85.046875 C 38.140625 -85.046875 35.03125 -75.4375 32.21875 -68.9375 C 27.40625 -57.640625 20.34375 -41.25 16.671875 -29.671875 Z M 9.328125 -9.046875 "/></g></g></g><g fill="#ffffff" fill-opacity="1"><g transform="translate(218.007625, 249.64067)"><g><path d="M 13.5625 -53.125 C 15.546875 -79.96875 30.515625 -158.796875 44.359375 -178.578125 C 46.0625 -180.5625 47.75 -183.09375 51.140625 -183.390625 C 51.984375 -178.859375 51.703125 -183.09375 52.84375 -174.625 C 53.125 -170.109375 52.84375 -169.25 52.84375 -165.015625 C 50.859375 -137.890625 29.671875 -85.046875 17.234375 -60.1875 Z M 9.328125 47.75 C 11.296875 58.765625 11.578125 61.59375 15.265625 61.59375 C 15.828125 61.59375 16.671875 61.59375 17.515625 61.3125 C 18.65625 55.671875 17.234375 59.625 16.109375 53.40625 L 13.28125 33.34375 C 11.015625 18.359375 10.453125 -10.734375 11.875 -26.84375 L 12.15625 -39 C 12.15625 -45.78125 15.265625 -47.1875 20.0625 -56.515625 L 24.296875 -64.703125 C 25.71875 -67.53125 27.125 -70.078125 28.828125 -73.1875 C 40.96875 -101.71875 59.0625 -139.578125 59.0625 -170.390625 C 59.0625 -179.140625 57.640625 -189.03125 49.734375 -189.03125 C 26.28125 -189.03125 9.328125 -78.828125 7.90625 -63.578125 C 7.0625 -57.640625 6.78125 -50.859375 5.09375 -45.5 C 4.234375 -42.390625 5.09375 -42.109375 5.375 -39.28125 L 4.234375 -20.0625 C 4.234375 2.828125 5.65625 25.140625 9.328125 47.75 Z M 9.328125 47.75 "/></g></g></g><g fill="#ffffff" fill-opacity="1"><g transform="translate(246.26319, 249.64067)"><g><path d="M 13.5625 -0.5625 C 14.125 0 14.6875 0 15.546875 0 C 18.359375 0 20.34375 -1.984375 20.90625 -5.375 C 21.1875 -7.625 20.625 -9.609375 19.21875 -10.734375 C 18.9375 -11.015625 18.65625 -11.296875 18.078125 -11.296875 C 16.390625 -11.296875 13.84375 -10.453125 12.71875 -9.328125 C 12.15625 -8.484375 11.875 -6.78125 11.875 -5.09375 C 11.875 -2.546875 12.15625 -1.703125 13.5625 -0.5625 Z M 13.5625 -0.5625 "/></g></g></g></svg>