<svg xmlns="http://www.w3.org/2000/svg" xmlns:xlink="http://www.w3.org/1999/xlink" width="500" zoomAndPan="magnify" viewBox="0 0 375 374.999991" height="500" preserveAspectRatio="xMidYMid meet" version="1.0"><defs><g/></defs><g fill="#f5dfbb" fill-opacity="1"><g transform="translate(97.07387, 241.344197)"><g><path d="M 9.328125 -9.046875 C 9.328125 -12.15625 9.046875 -13.5625 9.046875 -15.546875 C 8.484375 -18.359375 9.328125 -18.65625 9.328125 -21.75 C 9.609375 -27.96875 10.171875 -51.140625 14.125 -55.375 C 14.40625 -55.375 16.109375 -55.953125 16.109375 -57.359375 C 16.109375 -59.90625 14.96875 -62.15625 13.28125 -62.15625 C 11.578125 -62.15625 9.609375 -59.625 7.90625 -51.703125 C 6.21875 -43.234375 -3.390625 4.796875 8.765625 4.796875 C 13.84375 4.796875 16.671875 -7.90625 18.359375 -12.4375 C 20.34375 -19.21875 22.609375 -25.71875 25.140625 -32.5 L 40.6875 -69.796875 C 40.6875 -69.796875 40.96875 -70.078125 40.96875 -70.359375 C 40.96875 -56.796875 38.421875 -0.5625 46.90625 4.796875 C 48.03125 5.375 49.171875 5.9375 50.015625 5.9375 C 53.6875 5.9375 56.234375 1.40625 57.921875 -1.703125 L 68.375 -22.046875 C 69.796875 -24.296875 70.640625 -25.71875 72.046875 -28.53125 C 73.75 -31.640625 77.703125 -39.84375 79.96875 -41.25 C 80.53125 -33.625 88.4375 -14.40625 100.03125 -14.40625 C 110.765625 -14.40625 129.40625 -28.25 129.40625 -31.921875 C 129.40625 -33.90625 128.5625 -34.46875 127.4375 -34.46875 C 122.34375 -34.46875 108.5 -21.1875 100.59375 -21.1875 C 88.15625 -21.1875 88.71875 -47.75 81.375 -49.734375 C 81.09375 -49.734375 80.8125 -50.015625 80.25 -50.015625 C 75.734375 -50.015625 72.34375 -41.53125 70.359375 -38.140625 C 69.234375 -36.171875 68.65625 -35.03125 67.53125 -32.78125 L 61.875 -22.328125 C 59.90625 -18.359375 58.484375 -15.265625 56.515625 -11.875 C 54.8125 -9.046875 52.5625 -3.390625 50.296875 -1.703125 C 50.015625 -5.09375 49.171875 -7.625 48.890625 -11.296875 C 48.59375 -22.328125 47.75 -31.921875 48.3125 -44.640625 L 48.890625 -66.96875 C 48.890625 -74.59375 50.015625 -85.046875 43.515625 -85.046875 C 38.140625 -85.046875 35.03125 -75.4375 32.21875 -68.9375 C 27.40625 -57.640625 20.34375 -41.25 16.671875 -29.671875 Z M 9.328125 -9.046875 "/></g></g></g><g fill="#f5dfbb" fill-opacity="1"><g transform="translate(218.007625, 241.344197)"><g><path d="M 13.5625 -53.125 C 15.546875 -79.96875 30.515625 -158.796875 44.359375 -178.578125 C 46.0625 -180.5625 47.75 -183.09375 51.140625 -183.390625 C 51.984375 -178.859375 51.703125 -183.09375 52.84375 -174.625 C 53.125 -170.109375 52.84375 -169.25 52.84375 -165.015625 C 50.859375 -137.890625 29.671875 -85.046875 17.234375 -60.1875 Z M 9.328125 47.75 C 11.296875 58.765625 11.578125 61.59375 15.265625 61.59375 C 15.828125 61.59375 16.671875 61.59375 17.515625 61.3125 C 18.65625 55.671875 17.234375 59.625 16.109375 53.40625 L 13.28125 33.34375 C 11.015625 18.359375 10.453125 -10.734375 11.875 -26.84375 L 12.15625 -39 C 12.15625 -45.78125 15.265625 -47.1875 20.0625 -56.515625 L 24.296875 -64.703125 C 25.71875 -67.53125 27.125 -70.078125 28.828125 -73.1875 C 40.96875 -101.71875 59.0625 -139.578125 59.0625 -170.390625 C 59.0625 -179.140625 57.640625 -189.03125 49.734375 -189.03125 C 26.28125 -189.03125 9.328125 -78.828125 7.90625 -63.578125 C 7.0625 -57.640625 6.78125 -50.859375 5.09375 -45.5 C 4.234375 -42.390625 5.09375 -42.109375 5.375 -39.28125 L 4.234375 -20.0625 C 4.234375 2.828125 5.65625 25.140625 9.328125 47.75 Z M 9.328125 47.75 "/></g></g></g><g fill="#f5dfbb" fill-opacity="1"><g transform="translate(246.26319, 241.344197)"><g><path d="M 13.5625 -0.5625 C 14.125 0 14.6875 0 15.546875 0 C 18.359375 0 20.34375 -1.984375 20.90625 -5.375 C 21.1875 -7.625 20.625 -9.609375 19.21875 -10.734375 C 18.9375 -11.015625 18.65625 -11.296875 18.078125 -11.296875 C 16.390625 -11.296875 13.84375 -10.453125 12.71875 -9.328125 C 12.15625 -8.484375 11.875 -6.78125 11.875 -5.09375 C 11.875 -2.546875 12.15625 -1.703125 13.5625 -0.5625 Z M 13.5625 -0.5625 "/></g></g></g><g fill="#b89685" fill-opacity="1"><g transform="translate(104.666002, 270.839091)"><g><path d="M 0.71875 0 L 0.71875 -13.203125 L 2.25 -13.203125 C 4.046875 -13.203125 5.015625 -12.84375 5.53125 -11.84375 C 6.03125 -10.828125 6.109375 -9.1875 6.109375 -6.59375 C 6.109375 -4 6.03125 -2.375 5.53125 -1.359375 C 5.015625 -0.359375 4.046875 0 2.25 0 Z M 2.65625 -1.9375 C 3.328125 -1.9375 3.703125 -2.015625 3.90625 -2.65625 C 3.984375 -2.96875 4.0625 -3.4375 4.078125 -4.0625 C 4.09375 -4.6875 4.09375 -5.53125 4.09375 -6.609375 C 4.09375 -7.6875 4.09375 -8.53125 4.078125 -9.15625 C 4.0625 -9.78125 3.984375 -10.234375 3.90625 -10.5625 C 3.703125 -11.1875 3.328125 -11.265625 2.65625 -11.265625 Z M 2.65625 -1.9375 "/></g></g></g><g fill="#b89685" fill-opacity="1"><g transform="translate(122.139745, 270.839091)"><g><path d="M 0.71875 -13.203125 L 5.15625 -13.203125 L 5.15625 -11.21875 L 2.65625 -11.21875 L 2.65625 -7.75 L 4.453125 -7.75 L 4.453125 -5.625 L 2.65625 -5.625 L 2.65625 -2 L 5.15625 -2 L 5.15625 0 L 0.71875 0 Z M 0.71875 -13.203125 "/></g></g></g><g fill="#b89685" fill-opacity="1"><g transform="translate(138.445366, 270.839091)"><g><path d="M 3.9375 -9.671875 C 3.9375 -10.09375 3.921875 -10.578125 3.796875 -10.953125 C 3.671875 -11.3125 3.46875 -11.578125 3.15625 -11.578125 C 2.65625 -11.546875 2.5 -11.03125 2.5 -10.265625 C 2.5 -9.8125 2.6875 -9.34375 2.984375 -8.84375 C 3.265625 -8.34375 3.640625 -7.8125 4.03125 -7.265625 C 4.46875 -6.59375 4.921875 -5.90625 5.265625 -5.25 C 5.609375 -4.578125 5.84375 -3.90625 5.84375 -3.1875 C 5.84375 -2.296875 5.703125 -1.46875 5.28125 -0.859375 C 4.875 -0.25 4.203125 0.140625 3.140625 0.140625 C 1.90625 0.140625 1.203125 -0.328125 0.8125 -1.046875 C 0.40625 -1.765625 0.328125 -2.71875 0.328125 -3.703125 L 2.234375 -3.875 C 2.234375 -3.328125 2.25 -2.765625 2.390625 -2.359375 C 2.515625 -1.921875 2.734375 -1.640625 3.140625 -1.640625 C 3.71875 -1.640625 3.9375 -2.25 3.9375 -3.09375 C 3.9375 -3.515625 3.71875 -4.03125 3.4375 -4.546875 C 3.265625 -4.796875 3.109375 -5.0625 2.921875 -5.34375 C 2.546875 -5.875 2.140625 -6.484375 1.703125 -7.15625 C 1.28125 -7.8125 0.953125 -8.5 0.75 -9.203125 C 0.640625 -9.546875 0.59375 -9.90625 0.59375 -10.265625 C 0.59375 -10.984375 0.75 -11.75 1.171875 -12.34375 C 1.578125 -12.921875 2.203125 -13.328125 3.125 -13.34375 C 4.296875 -13.375 4.984375 -12.890625 5.359375 -12.1875 C 5.734375 -11.46875 5.84375 -10.578125 5.84375 -9.84375 Z M 3.9375 -9.671875 "/></g></g></g><g fill="#b89685" fill-opacity="1"><g transform="translate(155.397951, 270.839091)"><g><path d="M 0.71875 -13.203125 L 2.65625 -13.203125 L 2.65625 0 L 0.71875 0 Z M 0.71875 -13.203125 "/></g></g></g><g fill="#b89685" fill-opacity="1"><g transform="translate(169.565022, 270.839091)"><g><path d="M 3.828125 -8.46875 L 3.828125 -10.5 C 3.828125 -10.859375 3.75 -11.109375 3.578125 -11.3125 C 3.484375 -11.40625 3.34375 -11.46875 3.1875 -11.46875 C 2.84375 -11.46875 2.671875 -11.21875 2.609375 -10.984375 C 2.546875 -10.828125 2.53125 -10.671875 2.53125 -10.5 L 2.53125 -2.546875 C 2.53125 -2.171875 2.625 -1.921875 2.796875 -1.71875 C 2.890625 -1.640625 3.015625 -1.578125 3.1875 -1.578125 C 3.515625 -1.578125 3.6875 -1.796875 3.75 -2.0625 C 3.8125 -2.1875 3.828125 -2.359375 3.828125 -2.546875 L 3.828125 -4.9375 L 3.046875 -4.9375 L 3.046875 -6.578125 L 5.765625 -6.578125 L 5.765625 0 L 4.625 0 L 4.390625 -0.625 C 4.03125 -0.171875 3.5 0.140625 2.875 0.140625 C 2.25 0.140625 1.8125 -0.015625 1.484375 -0.3125 C 1.171875 -0.578125 0.953125 -0.921875 0.8125 -1.28125 C 0.640625 -1.6875 0.578125 -2.171875 0.59375 -2.71875 L 0.59375 -10.5 C 0.609375 -11.015625 0.71875 -11.5 0.921875 -11.90625 C 1.078125 -12.265625 1.3125 -12.625 1.671875 -12.90625 C 2.03125 -13.171875 2.53125 -13.34375 3.1875 -13.34375 C 3.828125 -13.34375 4.3125 -13.171875 4.671875 -12.90625 C 5.03125 -12.625 5.28125 -12.265625 5.4375 -11.90625 C 5.640625 -11.5 5.75 -11.015625 5.765625 -10.5 L 5.765625 -8.46875 Z M 3.828125 -8.46875 "/></g></g></g><g fill="#b89685" fill-opacity="1"><g transform="translate(186.823109, 270.839091)"><g><path d="M 2.765625 -6.875 L 2.609375 -7.5 L 2.5 -7.5 L 2.5 0 L 0.71875 0 L 0.71875 -13.203125 L 2.4375 -13.203125 L 4.328125 -6.328125 L 4.484375 -5.71875 L 4.59375 -5.71875 L 4.59375 -13.203125 L 6.375 -13.203125 L 6.375 0 L 4.65625 0 Z M 2.765625 -6.875 "/></g></g></g><g fill="#b89685" fill-opacity="1"><g transform="translate(204.710182, 270.839091)"><g><path d="M 3.9375 -9.671875 C 3.9375 -10.09375 3.921875 -10.578125 3.796875 -10.953125 C 3.671875 -11.3125 3.46875 -11.578125 3.15625 -11.578125 C 2.65625 -11.546875 2.5 -11.03125 2.5 -10.265625 C 2.5 -9.8125 2.6875 -9.34375 2.984375 -8.84375 C 3.265625 -8.34375 3.640625 -7.8125 4.03125 -7.265625 C 4.46875 -6.59375 4.921875 -5.90625 5.265625 -5.25 C 5.609375 -4.578125 5.84375 -3.90625 5.84375 -3.1875 C 5.84375 -2.296875 5.703125 -1.46875 5.28125 -0.859375 C 4.875 -0.25 4.203125 0.140625 3.140625 0.140625 C 1.90625 0.140625 1.203125 -0.328125 0.8125 -1.046875 C 0.40625 -1.765625 0.328125 -2.71875 0.328125 -3.703125 L 2.234375 -3.875 C 2.234375 -3.328125 2.25 -2.765625 2.390625 -2.359375 C 2.515625 -1.921875 2.734375 -1.640625 3.140625 -1.640625 C 3.71875 -1.640625 3.9375 -2.25 3.9375 -3.09375 C 3.9375 -3.515625 3.71875 -4.03125 3.4375 -4.546875 C 3.265625 -4.796875 3.109375 -5.0625 2.921875 -5.34375 C 2.546875 -5.875 2.140625 -6.484375 1.703125 -7.15625 C 1.28125 -7.8125 0.953125 -8.5 0.75 -9.203125 C 0.640625 -9.546875 0.59375 -9.90625 0.59375 -10.265625 C 0.59375 -10.984375 0.75 -11.75 1.171875 -12.34375 C 1.578125 -12.921875 2.203125 -13.328125 3.125 -13.34375 C 4.296875 -13.375 4.984375 -12.890625 5.359375 -12.1875 C 5.734375 -11.46875 5.84375 -10.578125 5.84375 -9.84375 Z M 3.9375 -9.671875 "/></g></g></g><g fill="#b89685" fill-opacity="1"><g transform="translate(221.662763, 270.839091)"><g/></g></g><g fill="#b89685" fill-opacity="1"><g transform="translate(235.218832, 270.839091)"><g><path d="M 0.71875 0 L 0.71875 -13.203125 L 2.421875 -13.203125 C 3.578125 -13.203125 4.46875 -12.984375 5.0625 -12.4375 C 5.65625 -11.875 5.96875 -11.015625 5.96875 -9.703125 C 5.96875 -9.078125 5.90625 -8.609375 5.71875 -8.171875 C 5.515625 -7.75 5.203125 -7.390625 4.765625 -6.96875 C 5.25 -6.703125 5.609375 -6.203125 5.890625 -5.359375 C 6.03125 -4.9375 6.109375 -4.40625 6.109375 -3.734375 C 6.109375 -2.75 5.921875 -1.875 5.484375 -1.1875 C 5.03125 -0.5 4.265625 -0.046875 3.109375 0 Z M 2.65625 -7.765625 C 2.828125 -7.765625 3.203125 -7.75 3.515625 -7.953125 C 3.84375 -8.171875 4.09375 -8.609375 4.09375 -9.515625 C 4.09375 -10.4375 3.84375 -10.875 3.515625 -11.09375 C 3.203125 -11.296875 2.828125 -11.28125 2.65625 -11.28125 Z M 2.65625 -1.921875 C 2.828125 -1.921875 3.203125 -1.890625 3.515625 -2.125 C 3.84375 -2.359375 4.09375 -2.875 4.09375 -3.953125 C 4.09375 -5.03125 3.84375 -5.546875 3.515625 -5.78125 C 3.203125 -6.015625 2.828125 -5.984375 2.65625 -5.984375 Z M 2.65625 -1.921875 "/></g></g></g><g fill="#b89685" fill-opacity="1"><g transform="translate(252.548816, 270.839091)"><g><path d="M 3 -8.984375 L 3.046875 -8.859375 L 3.09375 -8.859375 L 3.140625 -8.984375 L 4.109375 -13.203125 L 6.015625 -13.203125 L 4.046875 -5.625 L 4.046875 0 L 2.109375 0 L 2.109375 -5.625 L 0.125 -13.203125 L 2.03125 -13.203125 Z M 3 -8.984375 "/></g></g></g><g fill="#b89685" fill-opacity="1"><g transform="translate(101.670834, 292.031032)"><g><path d="M 3.9375 0 L 2.6875 -8.296875 L 2.625 -8.859375 L 2.515625 -8.859375 L 2.515625 0 L 0.71875 0 L 0.71875 -13.203125 L 3.09375 -13.203125 L 4.234375 -7.171875 L 4.328125 -6.46875 L 4.359375 -6.46875 L 4.453125 -7.171875 L 5.609375 -13.203125 L 7.984375 -13.203125 L 7.984375 0 L 6.1875 0 L 6.1875 -8.859375 L 6.078125 -8.859375 L 6 -8.296875 L 4.765625 0 Z M 3.9375 0 "/></g></g></g><g fill="#b89685" fill-opacity="1"><g transform="translate(121.157337, 292.031032)"><g><path d="M 0.71875 -13.203125 L 5.15625 -13.203125 L 5.15625 -11.21875 L 2.65625 -11.21875 L 2.65625 -7.75 L 4.453125 -7.75 L 4.453125 -5.625 L 2.65625 -5.625 L 2.65625 -2 L 5.15625 -2 L 5.15625 0 L 0.71875 0 Z M 0.71875 -13.203125 "/></g></g></g><g fill="#b89685" fill-opacity="1"><g transform="translate(137.462959, 292.031032)"><g><path d="M 3.828125 -8.46875 L 3.828125 -10.5 C 3.828125 -10.859375 3.75 -11.109375 3.578125 -11.3125 C 3.484375 -11.40625 3.34375 -11.46875 3.1875 -11.46875 C 2.84375 -11.46875 2.671875 -11.21875 2.609375 -10.984375 C 2.546875 -10.828125 2.53125 -10.671875 2.53125 -10.5 L 2.53125 -2.546875 C 2.53125 -2.171875 2.625 -1.921875 2.796875 -1.71875 C 2.890625 -1.640625 3.015625 -1.578125 3.1875 -1.578125 C 3.515625 -1.578125 3.6875 -1.796875 3.75 -2.0625 C 3.8125 -2.1875 3.828125 -2.359375 3.828125 -2.546875 L 3.828125 -4.9375 L 3.046875 -4.9375 L 3.046875 -6.578125 L 5.765625 -6.578125 L 5.765625 0 L 4.625 0 L 4.390625 -0.625 C 4.03125 -0.171875 3.5 0.140625 2.875 0.140625 C 2.25 0.140625 1.8125 -0.015625 1.484375 -0.3125 C 1.171875 -0.578125 0.953125 -0.921875 0.8125 -1.28125 C 0.640625 -1.6875 0.578125 -2.171875 0.59375 -2.71875 L 0.59375 -10.5 C 0.609375 -11.015625 0.71875 -11.5 0.921875 -11.90625 C 1.078125 -12.265625 1.3125 -12.625 1.671875 -12.90625 C 2.03125 -13.171875 2.53125 -13.34375 3.1875 -13.34375 C 3.828125 -13.34375 4.3125 -13.171875 4.671875 -12.90625 C 5.03125 -12.625 5.28125 -12.265625 5.4375 -11.90625 C 5.640625 -11.5 5.75 -11.015625 5.765625 -10.5 L 5.765625 -8.46875 Z M 3.828125 -8.46875 "/></g></g></g><g fill="#b89685" fill-opacity="1"><g transform="translate(154.721049, 292.031032)"><g><path d="M 0.171875 0 L 2.171875 -13.203125 L 4.546875 -13.203125 L 6.546875 0 L 4.65625 0 L 4.296875 -2.6875 L 2.421875 -2.6875 L 2.0625 0 Z M 3.46875 -8.90625 L 3.40625 -9.25 L 3.3125 -9.25 L 3.25 -8.90625 L 2.6875 -4.75 L 4.03125 -4.75 Z M 3.46875 -8.90625 "/></g></g></g><g fill="#b89685" fill-opacity="1"><g transform="translate(172.230727, 292.031032)"><g><path d="M 2.765625 -6.875 L 2.609375 -7.5 L 2.5 -7.5 L 2.5 0 L 0.71875 0 L 0.71875 -13.203125 L 2.4375 -13.203125 L 4.328125 -6.328125 L 4.484375 -5.71875 L 4.59375 -5.71875 L 4.59375 -13.203125 L 6.375 -13.203125 L 6.375 0 L 4.65625 0 Z M 2.765625 -6.875 "/></g></g></g><g fill="#b89685" fill-opacity="1"><g transform="translate(190.1178, 292.031032)"><g/></g></g><g fill="#b89685" fill-opacity="1"><g transform="translate(203.673861, 292.031032)"><g><path d="M 0.71875 -13.203125 L 2.65625 -13.203125 L 2.65625 -1.796875 L 5.234375 -1.796875 L 5.234375 0 L 0.71875 0 Z M 0.71875 -13.203125 "/></g></g></g><g fill="#b89685" fill-opacity="1"><g transform="translate(219.763842, 292.031032)"><g><path d="M 5.875 -13.203125 L 5.875 -2.71875 C 5.859375 -2.171875 5.75 -1.6875 5.546875 -1.28125 C 5.390625 -0.921875 5.140625 -0.578125 4.78125 -0.3125 C 4.421875 -0.015625 3.9375 0.140625 3.28125 0.140625 C 2.640625 0.140625 2.140625 -0.015625 1.78125 -0.3125 C 1.421875 -0.578125 1.1875 -0.921875 1.03125 -1.28125 C 0.828125 -1.6875 0.71875 -2.171875 0.703125 -2.71875 L 0.703125 -13.203125 L 2.640625 -13.203125 L 2.640625 -2.71875 C 2.640625 -2.328125 2.734375 -2.078125 2.90625 -1.890625 C 3 -1.796875 3.125 -1.75 3.28125 -1.75 C 3.625 -1.75 3.796875 -1.953125 3.859375 -2.234375 C 3.921875 -2.359375 3.9375 -2.515625 3.9375 -2.71875 L 3.9375 -13.203125 Z M 5.875 -13.203125 "/></g></g></g><g fill="#b89685" fill-opacity="1"><g transform="translate(237.129763, 292.031032)"><g><path d="M 2.765625 -6.875 L 2.609375 -7.5 L 2.5 -7.5 L 2.5 0 L 0.71875 0 L 0.71875 -13.203125 L 2.4375 -13.203125 L 4.328125 -6.328125 L 4.484375 -5.71875 L 4.59375 -5.71875 L 4.59375 -13.203125 L 6.375 -13.203125 L 6.375 0 L 4.65625 0 Z M 2.765625 -6.875 "/></g></g></g><g fill="#b89685" fill-opacity="1"><g transform="translate(255.016842, 292.031032)"><g><path d="M 0.71875 0 L 0.71875 -13.203125 L 2.25 -13.203125 C 4.046875 -13.203125 5.015625 -12.84375 5.53125 -11.84375 C 6.03125 -10.828125 6.109375 -9.1875 6.109375 -6.59375 C 6.109375 -4 6.03125 -2.375 5.53125 -1.359375 C 5.015625 -0.359375 4.046875 0 2.25 0 Z M 2.65625 -1.9375 C 3.328125 -1.9375 3.703125 -2.015625 3.90625 -2.65625 C 3.984375 -2.96875 4.0625 -3.4375 4.078125 -4.0625 C 4.09375 -4.6875 4.09375 -5.53125 4.09375 -6.609375 C 4.09375 -7.6875 4.09375 -8.53125 4.078125 -9.15625 C 4.0625 -9.78125 3.984375 -10.234375 3.90625 -10.5625 C 3.703125 -11.1875 3.328125 -11.265625 2.65625 -11.265625 Z M 2.65625 -1.9375 "/></g></g></g></svg>