<svg xmlns="http://www.w3.org/2000/svg" xmlns:xlink="http://www.w3.org/1999/xlink" width="1080" zoomAndPan="magnify" viewBox="0 0 810 809.999993" height="1080" preserveAspectRatio="xMidYMid meet" version="1.0"><defs><clipPath id="f8a14f7862"><path d="M 267 90.5625 L 338 90.5625 L 338 210 L 267 210 Z M 267 90.5625 " clip-rule="nonzero"/></clipPath></defs><path fill="#ffffff" d="M 188.523438 474.375 C 183.039062 474.375 178.59375 469.929688 178.59375 464.441406 L 178.59375 140.226562 C 178.59375 134.742188 183.039062 130.296875 188.523438 130.296875 L 240.277344 130.296875 C 245.761719 130.296875 250.207031 134.742188 250.207031 140.226562 C 250.207031 145.714844 245.761719 150.160156 240.277344 150.160156 L 198.457031 150.160156 L 198.457031 464.441406 C 198.457031 469.929688 194.011719 474.375 188.523438 474.375 Z M 188.523438 474.375 " fill-opacity="1" fill-rule="nonzero"/><path fill="#ffffff" d="M 575.878906 230.207031 L 575.878906 140.195312 C 575.878906 134.746094 571.460938 130.328125 566.015625 130.328125 L 367.285156 130.328125 C 361.839844 130.328125 357.421875 134.746094 357.421875 140.195312 C 357.421875 145.742188 361.839844 150.160156 367.285156 150.160156 L 556.046875 150.160156 L 556.046875 230.207031 C 450.785156 244.449219 450.945312 393.601562 556.046875 407.871094 L 556.046875 616.980469 L 351.050781 616.980469 C 345.5 616.980469 341.082031 621.5 341.082031 626.945312 C 341.082031 632.390625 345.5 636.914062 351.050781 636.914062 L 566.015625 636.914062 C 571.460938 636.914062 575.878906 632.390625 575.878906 626.945312 L 575.878906 407.871094 C 681.1875 393.761719 681.195312 244.210938 575.878906 230.207031 Z M 602.800781 341.800781 C 612 351.078125 597.960938 364.957031 588.722656 355.878906 C 588.722656 355.878906 566.015625 333.167969 566.015625 333.167969 L 543.203125 355.878906 C 539.261719 359.753906 533.023438 359.703125 529.125 355.878906 C 525.324219 351.972656 525.324219 345.703125 529.125 341.800781 L 551.9375 319.089844 L 529.125 296.277344 C 525.324219 292.375 525.324219 286.105469 529.125 282.203125 C 533.03125 278.296875 539.296875 278.296875 543.203125 282.203125 L 566.015625 305.011719 L 588.722656 282.203125 C 592.628906 278.296875 598.894531 278.296875 602.800781 282.203125 C 606.707031 286.105469 606.707031 292.375 602.800781 296.277344 L 580.089844 319.089844 Z M 602.800781 341.800781 " fill-opacity="1" fill-rule="nonzero"/><path fill="#ffffff" d="M 526.246094 487.917969 L 526.246094 547.515625 C 526.246094 552.960938 521.828125 557.378906 516.28125 557.378906 L 367.285156 557.378906 C 361.839844 557.378906 357.421875 552.960938 357.421875 547.515625 L 357.421875 487.917969 C 357.421875 482.371094 361.839844 477.949219 367.285156 477.949219 L 516.28125 477.949219 C 521.828125 477.949219 526.246094 482.371094 526.246094 487.917969 Z M 526.246094 487.917969 " fill-opacity="1" fill-rule="nonzero"/><g clip-path="url(#f8a14f7862)"><path fill="#ffffff" d="M 302.753906 209.757812 C 283.585938 209.757812 267.988281 193.152344 267.988281 172.738281 L 267.988281 163.707031 C 268.058594 150.707031 287.792969 150.722656 287.855469 163.707031 C 287.855469 163.707031 287.855469 172.738281 287.855469 172.738281 C 287.855469 182.195312 294.539062 189.894531 302.753906 189.894531 C 310.972656 189.894531 317.65625 182.195312 317.65625 172.738281 L 317.65625 127.582031 C 317.277344 105.039062 288.234375 105.015625 287.855469 127.585938 C 287.855469 133.070312 283.40625 137.515625 277.921875 137.515625 C 272.4375 137.515625 267.988281 133.070312 267.988281 127.582031 C 267.988281 107.167969 283.585938 90.5625 302.753906 90.5625 C 321.921875 90.5625 337.519531 107.167969 337.519531 127.582031 L 337.519531 172.738281 C 337.519531 193.152344 321.921875 209.757812 302.753906 209.757812 Z M 302.753906 209.757812 " fill-opacity="1" fill-rule="nonzero"/></g><path fill="#ffffff" d="M 228.257812 487.917969 C 173.488281 487.917969 128.894531 532.410156 128.894531 587.179688 C 134.382812 718.996094 322.152344 718.957031 327.621094 587.179688 C 327.621094 532.410156 283.027344 487.917969 228.257812 487.917969 Z M 284.976562 574.335938 L 225.378906 633.933594 C 223.429688 635.886719 220.859375 636.914062 218.289062 636.914062 C 215.824219 636.914062 213.253906 635.886719 211.304688 633.933594 L 181.503906 604.132812 C 172.289062 594.957031 186.417969 580.984375 195.582031 590.160156 C 195.582031 590.160156 218.289062 612.867188 218.289062 612.867188 L 270.902344 560.359375 C 280.101562 551.203125 294.019531 565.085938 284.976562 574.335938 Z M 284.976562 574.335938 " fill-opacity="1" fill-rule="nonzero"/><path fill="#ffffff" d="M 426.917969 299.15625 L 347.453125 299.15625 C 334.488281 299.105469 334.445312 279.347656 347.453125 279.289062 C 347.453125 279.289062 426.917969 279.289062 426.917969 279.289062 C 439.882812 279.34375 439.925781 299.101562 426.917969 299.15625 Z M 426.917969 299.15625 " fill-opacity="1" fill-rule="nonzero"/><path fill="#ffffff" d="M 426.917969 358.753906 L 387.1875 358.753906 C 374.207031 358.699219 374.1875 338.945312 387.1875 338.886719 C 387.1875 338.886719 426.917969 338.886719 426.917969 338.886719 C 439.894531 338.945312 439.914062 358.699219 426.917969 358.753906 Z M 426.917969 358.753906 " fill-opacity="1" fill-rule="nonzero"/><path fill="#ffffff" d="M 347.453125 358.753906 L 248.125 358.753906 C 235.164062 358.703125 235.109375 338.945312 248.125 338.886719 C 248.125 338.886719 347.453125 338.886719 347.453125 338.886719 C 360.414062 338.941406 360.464844 358.699219 347.453125 358.753906 Z M 347.453125 358.753906 " fill-opacity="1" fill-rule="nonzero"/></svg>